<svg xmlns="http://www.w3.org/2000/svg" xmlns:xlink="http://www.w3.org/1999/xlink" version="1.1" data-diagram-type="STATE" style="width:1236px;height:1027px;background:#FFFFFF;" width="1236px" height="1027px" viewBox="0 0 1236 1027" zoomAndPan="magnify" preserveAspectRatio="none" contentStyleType="text/css"><?plantuml 1.2026.8?><defs/><g font-family="sans-serif" lengthAdjust="spacing"><g class="title" data-source-line="9"><text x="531.83" y="22.995" fill="#000" font-size="14" textLength="166.25" font-weight="700" font-family="DejaVu Sans">Minimal Job Lifecycle</text><text x="442.898" y="39.292" fill="#000" font-size="14" textLength="344.114" font-weight="700" font-family="DejaVu Sans">Job state and stage-task state are separate</text></g><rect x="681" y="126.594" width="255.745" height="58.891" fill="#DBEAFE" style="stroke:#181818;stroke-width:0.5;" rx="12.5" ry="12.5"/><text x="686" y="144.589" fill="#000" font-size="14" textLength="74.594" font-family="DejaVu Sans">ACCEPTED</text><text x="686" y="160.886" fill="#000" font-size="14" textLength="245.745" font-family="DejaVu Sans">Completed dataset + frozen config</text><text x="686" y="177.183" fill="#000" font-size="14" textLength="207.416" font-family="DejaVu Sans">Atomic job and PREPARE task</text><rect x="641" y="222.594" width="336.389" height="58.891" fill="#DBEAFE" style="stroke:#181818;stroke-width:0.5;" rx="12.5" ry="12.5"/><text x="646" y="240.589" fill="#000" font-size="14" textLength="105.69" font-family="DejaVu Sans">PREPARE / CPU</text><text x="646" y="256.886" fill="#000" font-size="14" textLength="326.389" font-family="DejaVu Sans">Validate / exact dedup / near-duplicate groups</text><text x="646" y="273.183" fill="#000" font-size="14" textLength="231.485" font-family="DejaVu Sans">Freeze approximately 90/10 split</text><rect x="515.5" y="336.594" width="257.112" height="58.891" fill="#DBEAFE" style="stroke:#181818;stroke-width:0.5;" rx="12.5" ry="12.5"/><text x="520.5" y="354.589" fill="#000" font-size="14" textLength="132.323" font-family="DejaVu Sans">CAPTION / optional</text><text x="520.5" y="370.886" fill="#000" font-size="14" textLength="230.679" font-family="DejaVu Sans">Provided text > template or BLIP</text><text x="520.5" y="387.183" fill="#000" font-size="14" textLength="247.112" font-family="DejaVu Sans">Freeze final training-input manifest</text><rect x="543" y="432.594" width="201.734" height="58.891" fill="#F3E8FF" style="stroke:#181818;stroke-width:0.5;" rx="12.5" ry="12.5"/><text x="548" y="450.589" fill="#000" font-size="14" textLength="42.458" font-family="DejaVu Sans">TRAIN</text><text x="548" y="466.886" fill="#000" font-size="14" textLength="155.388" font-family="DejaVu Sans">LoRA parameters only</text><text x="548" y="483.183" fill="#000" font-size="14" textLength="191.734" font-family="DejaVu Sans">Full resumable checkpoints</text><rect x="440" y="546.594" width="262.273" height="58.891" fill="#F3E8FF" style="stroke:#181818;stroke-width:0.5;" rx="12.5" ry="12.5"/><text x="445" y="564.589" fill="#000" font-size="14" textLength="73.021" font-family="DejaVu Sans">EVALUATE</text><text x="445" y="580.886" fill="#000" font-size="14" textLength="252.273" font-family="DejaVu Sans">Reload saved adapter and generate</text><text x="445" y="597.183" fill="#000" font-size="14" textLength="207.532" font-family="DejaVu Sans">CLIP diagnostics + paired A/B</text><rect x="60.5" y="660.594" width="332.615" height="58.891" fill="#DCFCE7" style="stroke:#181818;stroke-width:0.5;" rx="12.5" ry="12.5"/><text x="65.5" y="678.589" fill="#000" font-size="14" textLength="101.719" font-family="DejaVu Sans">PUBLISH / CPU</text><text x="65.5" y="694.886" fill="#000" font-size="14" textLength="322.615" font-family="DejaVu Sans">Check exact input, adapter and report hashes</text><text x="65.5" y="711.183" fill="#000" font-size="14" textLength="252.342" font-family="DejaVu Sans">Atomic registry + terminal job state</text><rect x="6" y="774.594" width="207.784" height="58.891" fill="#DCFCE7" style="stroke:#181818;stroke-width:0.5;" rx="12.5" ry="12.5"/><text x="11" y="792.589" fill="#000" font-size="14" textLength="47.482" font-family="DejaVu Sans">READY</text><text x="11" y="808.886" fill="#000" font-size="14" textLength="172.013" font-family="DejaVu Sans">Calibrated policy passed</text><text x="11" y="825.183" fill="#000" font-size="14" textLength="197.784" font-family="DejaVu Sans">Owner-authorized download</text><rect x="232.5" y="774.594" width="251.452" height="58.891" fill="#FEF3C7" style="stroke:#181818;stroke-width:0.5;" rx="12.5" ry="12.5"/><text x="237.5" y="792.589" fill="#000" font-size="14" textLength="177.946" font-family="DejaVu Sans">COMPLETED_UNVERIFIED</text><text x="237.5" y="808.886" fill="#000" font-size="14" textLength="136.008" font-family="DejaVu Sans">Model: UNVERIFIED</text><text x="237.5" y="825.183" fill="#000" font-size="14" textLength="241.452" font-family="DejaVu Sans">Explicit allow_unverified download</text><rect x="411.5" y="660.594" width="295.1" height="58.891" fill="#FEE2E2" style="stroke:#181818;stroke-width:0.5;" rx="12.5" ry="12.5"/><text x="416.5" y="678.589" fill="#000" font-size="14" textLength="136.377" font-family="DejaVu Sans">QUALITY_REJECTED</text><text x="416.5" y="694.886" fill="#000" font-size="14" textLength="161.246" font-family="DejaVu Sans">Calibrated policy failed</text><text x="416.5" y="711.183" fill="#000" font-size="14" textLength="285.1" font-family="DejaVu Sans">Report retained; no automatic retraining</text><rect x="798" y="668.594" width="313.762" height="42.594" fill="#FEE2E2" style="stroke:#181818;stroke-width:0.5;" rx="12.5" ry="12.5"/><text x="803" y="686.589" fill="#000" font-size="14" textLength="49.185" font-family="DejaVu Sans">FAILED</text><text x="803" y="702.886" fill="#000" font-size="14" textLength="303.762" font-family="DejaVu Sans">Data / configuration / OOM / technical error</text><g class="start_entity" data-qualified-name=".start." id="ent0011" data-source-line="21"><ellipse cx="809" cy="75.594" rx="10" ry="10" fill="#222" style="stroke:#222;stroke-width:1;"/></g><g class="end_entity" data-qualified-name=".end." id="ent0024" data-source-line="33"><ellipse cx="261" cy="881.594" rx="11" ry="11" fill="none" style="stroke:#222;stroke-width:1;"/><ellipse cx="261" cy="881.594" rx="6" ry="6" fill="#222" style="stroke:#222;stroke-width:1;"/></g><g class="link" data-entity-1="ent0011" data-entity-2="ent0001" id="lnk12" data-link-type="dependency"><polygon points="809,126.567,813,117.567,809,121.567,805,117.567,809,126.567" fill="#181818" style="stroke:#181818;stroke-width:1;stroke-linejoin:miter;stroke-miterlimit:10;"/><path d="M809,89.882 C809,99.524 809,108.817 809,121.567" style="stroke:#181818;stroke-width:1;" fill="none"/></g><g class="link" data-entity-1="ent0001" data-entity-2="ent0002" id="lnk13" data-link-type="dependency"><polygon points="809,222.556,813,213.556,809,217.556,805,213.556,809,222.556" fill="#181818" style="stroke:#181818;stroke-width:1;stroke-linejoin:miter;stroke-miterlimit:10;"/><path d="M809,185.808 C809,197.47 809,205.912 809,217.556" style="stroke:#181818;stroke-width:1;" fill="none"/></g><g class="link" data-entity-1="ent0002" data-entity-2="ent0003" id="lnk14" data-link-type="dependency"><polygon points="656.103,336.572,663.802,330.43,658.408,332.135,656.703,326.741,656.103,336.572" fill="#181818" style="stroke:#181818;stroke-width:1;stroke-linejoin:miter;stroke-miterlimit:10;"/><path d="M711.884,281.627 C701.925,286.725 692.398,292.672 684,299.594 C672.073,309.424 665.047,319.358 658.408,332.135" style="stroke:#181818;stroke-width:1;" fill="none"/><text x="686" y="313.661" fill="#000" font-size="13" textLength="107.65" font-family="DejaVu Sans">Missing captions</text></g><g class="link" data-entity-1="ent0002" data-entity-2="ent0004" id="lnk15" data-link-type="dependency"><polygon points="734.8,432.415,744.626,431.748,739.221,430.08,740.889,424.674,734.8,432.415" fill="#181818" style="stroke:#181818;stroke-width:1;stroke-linejoin:miter;stroke-miterlimit:10;"/><path d="M810.563,281.847 C810.752,313.021 806.487,362.715 781,395.594 C768.967,411.117 756.756,420.817 739.221,430.08" style="stroke:#181818;stroke-width:1;" fill="none"/><text x="808" y="363.161" fill="#000" font-size="13" textLength="174.789" font-family="DejaVu Sans">Captions already complete</text><text x="821.409" y="378.293" fill="#000" font-size="13" textLength="147.97" font-family="DejaVu Sans">Finalize input manifest</text></g><g class="link" data-entity-1="ent0002" data-entity-2="ent0010" id="lnk16" data-link-type="dependency"><polygon points="989.424,668.363,998.998,666.049,993.388,665.316,994.122,659.707,989.424,668.363" fill="#181818" style="stroke:#181818;stroke-width:1;stroke-linejoin:miter;stroke-miterlimit:10;"/><path d="M958.707,281.614 C997.203,298.098 1028,324.097 1028,365.094 C1028,365.094 1028,365.094 1028,577.094 C1028,606.862 1029.736,617.324 1014,642.594 C1007.795,652.558 1002.625,658.216 993.388,665.316" style="stroke:#181818;stroke-width:1;" fill="none"/><text x="1030" y="466.661" fill="#000" font-size="13" textLength="198.91" font-family="DejaVu Sans">Too small / unsuitable / invalid</text></g><g class="link" data-entity-1="ent0003" data-entity-2="ent0004" id="lnk17" data-link-type="dependency"><polygon points="644,432.556,648,423.556,644,427.556,640,423.556,644,432.556" fill="#181818" style="stroke:#181818;stroke-width:1;stroke-linejoin:miter;stroke-miterlimit:10;"/><path d="M644,395.808 C644,407.47 644,415.912 644,427.556" style="stroke:#181818;stroke-width:1;" fill="none"/></g><g class="link" data-entity-1="ent0004" data-entity-2="ent0005" id="lnk18" data-link-type="dependency"><polygon points="589.83,546.204,598.095,540.849,592.56,542.016,591.393,536.48,589.83,546.204" fill="#181818" style="stroke:#181818;stroke-width:1;stroke-linejoin:miter;stroke-miterlimit:10;"/><path d="M625.39,491.646 C614.492,508.367 603.496,525.237 592.56,542.016" style="stroke:#181818;stroke-width:1;" fill="none"/><text x="614" y="523.661" fill="#000" font-size="13" textLength="160.475" font-family="DejaVu Sans">Complete saved adapter</text></g><g class="link" data-entity-1="ent0005" data-entity-2="ent0006" id="lnk19" data-link-type="dependency"><polygon points="238.2,660.434,245.809,654.181,240.441,655.964,238.658,650.596,238.2,660.434" fill="#181818" style="stroke:#181818;stroke-width:1;stroke-linejoin:miter;stroke-miterlimit:10;"/><path d="M439.634,586.426 C371.319,593.385 296.288,604.983 268,623.594 C254.663,632.368 247.107,642.668 240.441,655.964" style="stroke:#181818;stroke-width:1;" fill="none"/><text x="270" y="637.661" fill="#000" font-size="13" textLength="283.239" font-family="DejaVu Sans">Technical pass; policy PASS or uncalibrated</text></g><g class="link" data-entity-1="ent0005" data-entity-2="ent0009" id="lnk20" data-link-type="dependency"><polygon points="558.095,660.305,562.087,651.301,558.09,655.305,554.087,651.309,558.095,660.305" fill="#181818" style="stroke:#181818;stroke-width:1;stroke-linejoin:miter;stroke-miterlimit:10;"/><path d="M563.153,605.939 C561.864,611.743 560.717,617.831 560,623.594 C558.512,635.557 558.08,643.843 558.09,655.305" style="stroke:#181818;stroke-width:1;" fill="none"/><text x="562" y="637.661" fill="#000" font-size="13" textLength="141.159" font-family="DejaVu Sans">Calibrated policy FAIL</text></g><g class="link" data-entity-1="ent0005" data-entity-2="ent0010" id="lnk21" data-link-type="dependency"><polygon points="802.36,668.535,794.61,662.457,797.512,667.313,792.656,670.215,802.36,668.535" fill="#181818" style="stroke:#181818;stroke-width:1;stroke-linejoin:miter;stroke-miterlimit:10;"/><path d="M666.914,605.658 C680.042,610.916 693.087,616.895 705,623.594 C716.557,630.092 716.039,636.871 728,642.594 C751.134,653.662 771.975,660.88 797.512,667.313" style="stroke:#181818;stroke-width:1;" fill="none"/><text x="730" y="637.661" fill="#000" font-size="13" textLength="282.858" font-family="DejaVu Sans">Load / generation / metric execution failure</text></g><g class="link" data-entity-1="ent0006" data-entity-2="ent0007" id="lnk22" data-link-type="dependency"><polygon points="113.478,774.48,119.321,766.551,114.554,769.597,111.509,764.83,113.478,774.48" fill="#181818" style="stroke:#181818;stroke-width:1;stroke-linejoin:miter;stroke-miterlimit:10;"/><path d="M150.525,719.84 C142.906,724.913 135.844,730.796 130,737.594 C121.164,747.872 117.308,757.103 114.554,769.597" style="stroke:#181818;stroke-width:1;" fill="none"/><text x="132" y="751.661" fill="#000" font-size="13" textLength="195.635" font-family="DejaVu Sans">Calibrated PASS; not test-only</text></g><g class="link" data-entity-1="ent0006" data-entity-2="ent0008" id="lnk23" data-link-type="dependency"><polygon points="350.333,774.296,351.041,764.472,348.636,769.593,343.516,767.188,350.333,774.296" fill="#181818" style="stroke:#181818;stroke-width:1;stroke-linejoin:miter;stroke-miterlimit:10;"/><path d="M305.81,719.681 C314.257,724.806 322.225,730.745 329,737.594 C338.97,747.673 344.114,757.061 348.636,769.593" style="stroke:#181818;stroke-width:1;" fill="none"/><text x="345" y="751.661" fill="#000" font-size="13" textLength="161.719" font-family="DejaVu Sans">Uncalibrated or test-only</text></g><g class="link" data-entity-1="ent0007" data-entity-2="ent0024" id="lnk25" data-link-type="dependency"><polygon points="249.832,875.936,243.612,868.3,245.372,873.676,239.996,875.437,249.832,875.936" fill="#181818" style="stroke:#181818;stroke-width:1;stroke-linejoin:miter;stroke-miterlimit:10;"/><path d="M166.656,833.797 C197.285,849.314 227.874,864.811 245.372,873.676" style="stroke:#181818;stroke-width:1;" fill="none"/></g><g class="link" data-entity-1="ent0008" data-entity-2="ent0024" id="lnk26" data-link-type="dependency"><polygon points="272.024,872.9,281.568,870.467,275.95,869.803,276.614,864.186,272.024,872.9" fill="#181818" style="stroke:#181818;stroke-width:1;stroke-linejoin:miter;stroke-miterlimit:10;"/><path d="M321.605,833.797 C303.972,847.703 287.985,860.312 275.95,869.803" style="stroke:#181818;stroke-width:1;" fill="none"/></g><g class="legend" data-source-line="36"><rect x="12" y="916.594" width="657.261" height="91.484" fill="none" style="stroke:#000;stroke-width:1;" rx="7.5" ry="7.5"/><text x="17" y="934.589" fill="#000" font-size="14" textLength="553.923" font-family="DejaVu Sans">GPU stages reacquire a shared physical device; no permanent evaluation GPU.</text><text x="17" y="950.886" fill="#000" font-size="14" textLength="622.05" font-family="DejaVu Sans">Infrastructure failures: at most three attempts; restore compatible complete checkpoint.</text><text x="17" y="967.183" fill="#000" font-size="14" textLength="455.752" font-family="DejaVu Sans">OOM and quality failure do not silently alter training parameters.</text><text x="17" y="983.479" fill="#000" font-size="14" textLength="624.586" font-family="DejaVu Sans">CANCEL_REQUESTED becomes CANCELLED only after executor termination is confirmed.</text><text x="17" y="999.776" fill="#000" font-size="14" textLength="647.261" font-family="DejaVu Sans">Stale attempts cannot commit outputs or publish; test-only artifacts cannot become READY.</text></g><?plantuml-src PLPXSzf64FtEhzWctzeIfqawRPsPpCYoQCbWcs3mJAPqCeUqmDd7dN9tier_VT-U40R77mmwhVRjxdlxn4-rLwkD8gEsheaKDXoLLRrmfssjlDhGGfLtA-yQM-NEE4-l1-dl8ABYfMfC73WRBzM6wPnlrKr3ryg6WwYmLfLxq7P5IsK27zonhkB0DNtu_U3GAtltms68AlBPouBEpufiKFJMkcBYJHstg2YKNjTHEzkBEXgc2strHXdwx1OqqaikjwNXkPNBb9IKhUJRYljHXRlkq3EX261759oENcLvNeodnVdSvcvJ6uvSKQNm44VwXPRUFR6bqjcbNirj5jr6btGB604OJufnDYb885wH2fIL9TV8q2Nl0aue7y_czaOPNScD4-97LKOqLZKrhYmhtyTNeqkvBUEemzmEFFCJogvhxnxHRsIpfR_UdlpsbW9YOy8SU-betq-UZQV3gqiaTMbWoipjsBjxJBEYo8-HFk43dKeqndqs6extI4kDU8fUORnsrGTFqD16MKmuj6YvQcdOeKqdsV1oRaTkab7Y5FFpWPmrMoHjZ27FeTce1JWhrrpUrKxR65AggS10V--BFqL_RSBY9XlDicanjnCsJe54TO_2LGLSzcdgAxOi388nr4wLLYlhGjHb066rqXxnsSbPmYZkbMaayGkOyGnzN__J4PDBQJjEKjE_7Y5Ymiv7Mgkmvh1NWUUL3j5lWOh0JHhTRIV0bffcONHOGzBv82_-wC0dHNR-5Q1Gmq8QgQXsO7wBuaFWQcwl7j1XNpLnxRn-4a6w1olJI5adhAhjovpvrSLuL437tsQNDyLaE1YAf2-mYkQK3e-AHr6PZgICSG_V6dlFNY_rIv3Py_dhGJ5ud--HliooqN3wzTka-5paxUByqCXIQIEDJDh1UPYGjbnzX3SGsdAGSXfWfxHTNxTSnXQmU5Uywm07sN0aCEVOIX3Mxc83FEWGrrTN5_WVkLnRR8yXzjxvb72GgjYdw_txyt_KxtzwtjBkIphjzcZtcSvsQgTJ64u8OdPbUnAEmbebdtRX0RFrYQHoPodO1P47kAJZdJfAiwltbAREmRb141fhR6XqJ0jqWeVlnK9wNLrxy5vRWbpl9OzwTl37IzJRHwIsTne5wdw4eiEF7PVZxFfQZAAnvPxdunHxucG2BwKWx1s7xziSoNwVTFlSiWa3yP06FtBPf2EHKYEqxEfi0MMuHsXIfSWhGWaXziM0ZXuvq3FsuQ0LQUtvaJQpF02nz0uUwevwXb5lHGiN8MCol8mzeh_7i_Pj4o1gLNvlO4Aav1qfPbIljo7DjU9xNNBQWXgEeIpRIDpEHdf5cZV8DhHBh-0iJHdHUJU1S4eAme7JKLp3hd4bFXx156v6XqYH6p8bi-seVtPTIItB8exslS40uhRBZTrFimjWnaQyP9GHx-lMyy3Q9KcUNUR520RmPLPSmm5emO13x-qDB6jw0P1QIfAMoZJbP9AfKntQFVORhYJbTLJckIDicPLoa7K3fy8F6UnC4ARgbjAFpvJXfHxr4iQzVwgjXfBBlkc1h9Qo_m40?></g></svg>